<svg xmlns="http://www.w3.org/2000/svg" xmlns:xlink="http://www.w3.org/1999/xlink" contentStyleType="text/css" data-diagram-type="DESCRIPTION" height="993px" preserveAspectRatio="none" style="width:838px;height:993px;background:#FFFFFF;" version="1.1" viewBox="0 0 838 993" width="838px" zoomAndPan="magnify"><title>Hardware Data Logger Deployment Diagram</title><defs/><g><g class="title" data-source-line="1"><text fill="#000000" font-family="sans-serif" font-size="14" font-weight="bold" lengthAdjust="spacing" textLength="350.8066" x="236.6738" y="22.9951">Hardware Data Logger Deployment Diagram</text></g><!--cluster HardwareDataLogger--><g class="cluster" data-entity="HardwareDataLogger" data-source-line="10" data-uid="ent0006" id="cluster_HardwareDataLogger"><polygon fill="#ADD8E6" points="265,176.0869,275,166.0869,510,166.0869,510,381.6869,500,391.6869,265,391.6869,265,176.0869" style="stroke:#181818;stroke-width:1;"/><line style="stroke:#181818;stroke-width:1;" x1="500" x2="510" y1="176.0869" y2="166.0869"/><line style="stroke:#181818;stroke-width:1;" x1="265" x2="500" y1="176.0869" y2="176.0869"/><line style="stroke:#181818;stroke-width:1;" x1="500" x2="500" y1="176.0869" y2="391.6869"/><text fill="#000000" font-family="sans-serif" font-size="14" font-weight="bold" lengthAdjust="spacing" textLength="169.0596" x="298.9702" y="192.082">HardwareDataLogger</text></g><!--cluster Host Machine (Raspberry Pi or User's PC)--><g class="cluster" data-entity="Host Machine .Raspberry Pi or User.s PC." data-source-line="17" data-uid="ent0010" id="cluster_Host Machine .Raspberry Pi or User.s PC."><polygon fill="#FFFFE0" points="16,482.6869,26,472.6869,631,472.6869,631,966.3469,621,976.3469,16,976.3469,16,482.6869" style="stroke:#181818;stroke-width:1;"/><line style="stroke:#181818;stroke-width:1;" x1="621" x2="631" y1="482.6869" y2="472.6869"/><line style="stroke:#181818;stroke-width:1;" x1="16" x2="621" y1="482.6869" y2="482.6869"/><line style="stroke:#181818;stroke-width:1;" x1="621" x2="621" y1="482.6869" y2="976.3469"/><text fill="#000000" font-family="sans-serif" font-size="14" font-weight="bold" lengthAdjust="spacing" textLength="326.1768" x="156.4116" y="498.682">Host Machine (Raspberry Pi or User's PC)</text></g><!--cluster grafana--><g class="cluster" data-entity="grafana" data-source-line="21" data-uid="ent0013" id="cluster_grafana"><rect fill="#F1F1F1" height="163.33" rx="2.5" ry="2.5" style="stroke:#181818;stroke-width:1;" width="97" x="40" y="571.6869"/><rect fill="#F1F1F1" height="10" style="stroke:#181818;stroke-width:1;" width="15" x="117" y="576.6869"/><rect fill="#F1F1F1" height="2" style="stroke:#181818;stroke-width:1;" width="4" x="115" y="578.6869"/><rect fill="#F1F1F1" height="2" style="stroke:#181818;stroke-width:1;" width="4" x="115" y="582.6869"/><text fill="#000000" font-family="sans-serif" font-size="14" font-style="italic" lengthAdjust="spacing" textLength="64.7568" x="56.1216" y="597.682">&#171;docker&#187;</text><text fill="#000000" font-family="sans-serif" font-size="14" font-weight="bold" lengthAdjust="spacing" textLength="62.7949" x="57.1025" y="613.9789">Grafana</text></g><!--cluster influx_db--><g class="cluster" data-entity="influx_db" data-source-line="25" data-uid="ent0015" id="cluster_influx_db"><path d="M116,825.3469 C116,815.3469 155,815.3469 155,815.3469 C155,815.3469 194,815.3469 194,825.3469 L194,950.3469 C194,960.3469 155,960.3469 155,960.3469 C155,960.3469 116,960.3469 116,950.3469 L116,825.3469" fill="#F1F1F1" style="stroke:#181818;stroke-width:1;"/><path d="M116,825.3469 C116,835.3469 155,835.3469 155,835.3469 C155,835.3469 194,835.3469 194,825.3469" fill="none" style="stroke:#181818;stroke-width:1;"/><text fill="#000000" font-family="sans-serif" font-size="14" font-style="italic" lengthAdjust="spacing" textLength="64.7568" x="122.6216" y="850.342">&#171;docker&#187;</text><text fill="#000000" font-family="sans-serif" font-size="14" font-weight="bold" lengthAdjust="spacing" textLength="67.3545" x="121.3228" y="866.6389">InfluxDB</text></g><!--cluster MQTT-Broker--><g class="cluster" data-entity="MQTT-Broker" data-source-line="32" data-uid="ent0018" id="cluster_MQTT-Broker"><rect fill="#F1F1F1" height="155.33" rx="2.5" ry="2.5" style="stroke:#181818;stroke-width:1;" width="113" x="320" y="693.5169"/><rect fill="#F1F1F1" height="10" style="stroke:#181818;stroke-width:1;" width="15" x="413" y="698.5169"/><rect fill="#F1F1F1" height="2" style="stroke:#181818;stroke-width:1;" width="4" x="411" y="700.5169"/><rect fill="#F1F1F1" height="2" style="stroke:#181818;stroke-width:1;" width="4" x="411" y="704.5169"/><text fill="#000000" font-family="sans-serif" font-size="14" font-style="italic" lengthAdjust="spacing" textLength="64.7568" x="344.1216" y="719.512">&#171;docker&#187;</text><text fill="#000000" font-family="sans-serif" font-size="14" font-weight="bold" lengthAdjust="spacing" textLength="103.6465" x="324.6768" y="735.8089">MQTT-Broker</text></g><!--entity STM32F103RBTx chip--><g class="entity" data-entity="STM32F103RBTx chip" data-source-line="11" data-uid="ent0007" id="entity_STM32F103RBTx chip"><rect fill="#F1F1F1" height="46.2969" rx="2.5" ry="2.5" style="stroke:#181818;stroke-width:0.5;" width="192.0723" x="290.96" y="206.0869"/><rect fill="#F1F1F1" height="10" style="stroke:#181818;stroke-width:0.5;" width="15" x="463.0323" y="211.0869"/><rect fill="#F1F1F1" height="2" style="stroke:#181818;stroke-width:0.5;" width="4" x="461.0323" y="213.0869"/><rect fill="#F1F1F1" height="2" style="stroke:#181818;stroke-width:0.5;" width="4" x="461.0323" y="217.0869"/><text fill="#000000" font-family="sans-serif" font-size="14" lengthAdjust="spacing" textLength="152.0723" x="305.96" y="239.082">STM32F103RBTx chip</text></g><!--entity ESP8266MOD chip--><g class="entity" data-entity="ESP8266MOD chip" data-source-line="12" data-uid="ent0008" id="entity_ESP8266MOD chip"><rect fill="#F1F1F1" height="46.2969" rx="2.5" ry="2.5" style="stroke:#181818;stroke-width:0.5;" width="169.4795" x="302.26" y="329.3869"/><rect fill="#F1F1F1" height="10" style="stroke:#181818;stroke-width:0.5;" width="15" x="451.7395" y="334.3869"/><rect fill="#F1F1F1" height="2" style="stroke:#181818;stroke-width:0.5;" width="4" x="449.7395" y="336.3869"/><rect fill="#F1F1F1" height="2" style="stroke:#181818;stroke-width:0.5;" width="4" x="449.7395" y="340.3869"/><text fill="#000000" font-family="sans-serif" font-size="14" lengthAdjust="spacing" textLength="129.4795" x="317.26" y="362.382">ESP8266MOD chip</text></g><g class="entity" data-entity="Port 3000" data-source-line="18" data-uid="ent0011" id="entity_Port 3000"><text fill="#000000" font-family="sans-serif" font-size="14" lengthAdjust="spacing" textLength="68.332" x="89.834" y="451.3851">Port 3000</text><rect fill="#F1F1F1" height="12" style="stroke:#181818;stroke-width:1.5;" width="12" x="118" y="466.6869"/></g><g class="entity" data-entity="Port 1883" data-source-line="19" data-uid="ent0012" id="entity_Port 1883"><text fill="#000000" font-family="sans-serif" font-size="14" lengthAdjust="spacing" textLength="68.332" x="352.834" y="451.3851">Port 1883</text><rect fill="#F1F1F1" height="12" style="stroke:#181818;stroke-width:1.5;" width="12" x="381" y="466.6869"/></g><g class="entity" data-entity="grafana_web" data-source-line="22" data-uid="ent0014" id="entity_grafana_web"><text fill="#000000" font-family="sans-serif" font-size="14" lengthAdjust="spacing" textLength="68.332" x="84.834" y="550.3851">Port 3000</text><rect fill="#F1F1F1" height="12" style="stroke:#181818;stroke-width:1.5;" width="12" x="113" y="565.6869"/></g><g class="entity" data-entity="influx_io" data-source-line="26" data-uid="ent0016" id="entity_influx_io"><text fill="#000000" font-family="sans-serif" font-size="14" lengthAdjust="spacing" textLength="68.332" x="141.834" y="794.0451">Port 8086</text><rect fill="#F1F1F1" height="12" style="stroke:#181818;stroke-width:1.5;" width="12" x="170" y="809.3469"/></g><!--entity node_red--><g class="entity" data-entity="node_red" data-source-line="29" data-uid="ent0017" id="entity_node_red"><rect fill="#F1F1F1" height="62.5938" rx="2.5" ry="2.5" style="stroke:#181818;stroke-width:0.5;" width="110.9434" x="192.53" y="662.2169"/><rect fill="#F1F1F1" height="10" style="stroke:#181818;stroke-width:0.5;" width="15" x="283.4734" y="667.2169"/><rect fill="#F1F1F1" height="2" style="stroke:#181818;stroke-width:0.5;" width="4" x="281.4734" y="669.2169"/><rect fill="#F1F1F1" height="2" style="stroke:#181818;stroke-width:0.5;" width="4" x="281.4734" y="673.2169"/><text fill="#000000" font-family="sans-serif" font-size="14" font-style="italic" lengthAdjust="spacing" textLength="64.7568" x="210.6233" y="695.212">&#171;docker&#187;</text><text fill="#000000" font-family="sans-serif" font-size="14" lengthAdjust="spacing" textLength="70.9434" x="207.53" y="711.5089">Node-RED</text></g><g class="entity" data-entity="mqtt_io" data-source-line="33" data-uid="ent0019" id="entity_mqtt_io"><text fill="#000000" font-family="sans-serif" font-size="14" lengthAdjust="spacing" textLength="68.332" x="374.834" y="672.2151">Port 1883</text><rect fill="#F1F1F1" height="12" style="stroke:#181818;stroke-width:1.5;" width="12" x="403" y="687.5169"/></g><!--entity hw_mock--><g class="entity" data-entity="hw_mock" data-source-line="36" data-uid="ent0020" id="entity_hw_mock"><rect fill="#F1F1F1" height="62.5938" rx="2.5" ry="2.5" style="stroke:#181818;stroke-width:0.5;" width="106.7568" x="479.62" y="662.2169"/><rect fill="#F1F1F1" height="10" style="stroke:#181818;stroke-width:0.5;" width="15" x="566.3768" y="667.2169"/><rect fill="#F1F1F1" height="2" style="stroke:#181818;stroke-width:0.5;" width="4" x="564.3768" y="669.2169"/><rect fill="#F1F1F1" height="2" style="stroke:#181818;stroke-width:0.5;" width="4" x="564.3768" y="673.2169"/><text fill="#000000" font-family="sans-serif" font-size="14" font-style="italic" lengthAdjust="spacing" textLength="64.7568" x="495.62" y="695.212">&#171;docker&#187;</text><text fill="#000000" font-family="sans-serif" font-size="14" lengthAdjust="spacing" textLength="63.3828" x="496.307" y="711.5089">hw-mock</text></g><!--entity User--><g class="entity" data-entity="User" data-source-line="4" data-uid="ent0002" id="entity_User"><ellipse cx="123.9951" cy="51.2969" fill="#F1F1F1" rx="8" ry="8" style="stroke:#181818;stroke-width:0.5;"/><path d="M123.9951,59.2969 L123.9951,86.2969 M110.9951,67.2969 L136.9951,67.2969 M123.9951,86.2969 L110.9951,101.2969 M123.9951,86.2969 L136.9951,101.2969" fill="none" style="stroke:#181818;stroke-width:0.5;"/><text fill="#000000" font-family="sans-serif" font-size="14" lengthAdjust="spacing" textLength="31.9102" x="108.04" y="115.792">User</text></g><!--entity device_1--><g class="entity" data-entity="device_1" data-source-line="6" data-uid="ent0003" id="entity_device_1"><polygon fill="#90EE90" points="182.52,67.7969,192.52,57.7969,295.4868,57.7969,295.4868,94.0938,285.4868,104.0938,182.52,104.0938,182.52,67.7969" style="stroke:#181818;stroke-width:0.5;"/><line style="stroke:#181818;stroke-width:0.5;" x1="285.4868" x2="295.4868" y1="67.7969" y2="57.7969"/><line style="stroke:#181818;stroke-width:0.5;" x1="182.52" x2="285.4868" y1="67.7969" y2="67.7969"/><line style="stroke:#181818;stroke-width:0.5;" x1="285.4868" x2="285.4868" y1="67.7969" y2="104.0938"/><text fill="#000000" font-family="sans-serif" font-size="14" lengthAdjust="spacing" textLength="72.9668" x="197.52" y="90.792">Device #1</text></g><!--entity device_2--><g class="entity" data-entity="device_2" data-source-line="7" data-uid="ent0004" id="entity_device_2"><polygon fill="#90EE90" points="330.52,67.7969,340.52,57.7969,443.4868,57.7969,443.4868,94.0938,433.4868,104.0938,330.52,104.0938,330.52,67.7969" style="stroke:#181818;stroke-width:0.5;"/><line style="stroke:#181818;stroke-width:0.5;" x1="433.4868" x2="443.4868" y1="67.7969" y2="57.7969"/><line style="stroke:#181818;stroke-width:0.5;" x1="330.52" x2="433.4868" y1="67.7969" y2="67.7969"/><line style="stroke:#181818;stroke-width:0.5;" x1="433.4868" x2="433.4868" y1="67.7969" y2="104.0938"/><text fill="#000000" font-family="sans-serif" font-size="14" lengthAdjust="spacing" textLength="72.9668" x="345.52" y="90.792">Device #2</text></g><!--entity device_n--><g class="entity" data-entity="device_n" data-source-line="8" data-uid="ent0005" id="entity_device_n"><polygon fill="#90EE90" points="478.53,67.7969,488.53,57.7969,591.4626,57.7969,591.4626,94.0938,581.4626,104.0938,478.53,104.0938,478.53,67.7969" style="stroke:#181818;stroke-width:0.5;"/><line style="stroke:#181818;stroke-width:0.5;" x1="581.4626" x2="591.4626" y1="67.7969" y2="57.7969"/><line style="stroke:#181818;stroke-width:0.5;" x1="478.53" x2="581.4626" y1="67.7969" y2="67.7969"/><line style="stroke:#181818;stroke-width:0.5;" x1="581.4626" x2="581.4626" y1="67.7969" y2="104.0938"/><text fill="#000000" font-family="sans-serif" font-size="14" lengthAdjust="spacing" textLength="72.9326" x="493.53" y="90.792">Device #n</text></g><g class="entity" data-entity="GMN30" data-source-line="50" data-uid="ent0031" id="entity_GMN30"><path d="M638.85,650.6869 L638.85,689.5169 L586.66,693.5169 L638.85,697.5169 L638.85,736.3509 A0,0 0 0 0 638.85,736.3509 L831.1542,736.3509 A0,0 0 0 0 831.1542,736.3509 L831.1542,660.6869 L821.1542,650.6869 L638.85,650.6869 A0,0 0 0 0 638.85,650.6869" fill="#FEFFDD" style="stroke:#181818;stroke-width:0.5;"/><path d="M821.1542,650.6869 L821.1542,660.6869 L831.1542,660.6869 L821.1542,650.6869" fill="#FEFFDD" style="stroke:#181818;stroke-width:0.5;"/><text fill="#000000" font-family="sans-serif" font-size="13" lengthAdjust="spacing" textLength="171.3042" x="644.85" y="667.7538">Used to provide simulated</text><text fill="#000000" font-family="sans-serif" font-size="13" lengthAdjust="spacing" textLength="164.2075" x="644.85" y="682.8866">data for testing purposes</text><text fill="#000000" font-family="sans-serif" font-size="13" lengthAdjust="spacing" textLength="144.5552" x="644.85" y="698.0194">when real hardware is</text><text fill="#000000" font-family="sans-serif" font-size="13" lengthAdjust="spacing" textLength="155.9111" x="644.85" y="713.1522">unavailable or excluded</text><text fill="#000000" font-family="sans-serif" font-size="13" lengthAdjust="spacing" textLength="70.5415" x="644.85" y="728.285">from tests.</text></g><!--link STM32F103RBTx chip to ESP8266MOD chip--><g class="link" data-entity-1="STM32F103RBTx chip" data-entity-2="ESP8266MOD chip" data-source-line="14" data-uid="lnk9" id="link_STM32F103RBTx chip_ESP8266MOD chip"><path d="M387,252.7669 C387,274.5569 387,301.3769 387,323.1269" fill="none" id="STM32F103RBTx chip-to-ESP8266MOD chip" style="stroke:#181818;stroke-width:1;"/><polygon fill="#181818" points="387,329.1269,391,320.1269,387,324.1269,383,320.1269,387,329.1269" style="stroke:#181818;stroke-width:1;"/></g><!--link Port 3000 to grafana_web--><g class="link" data-entity-1="Port 3000" data-entity-2="grafana_web" data-source-line="39" data-uid="lnk21" id="link_Port 3000_grafana_web"><path d="M123.75,478.6269 C122.89,495.3069 120.4089,543.3848 119.5589,559.8748" fill="none" id="Port 3000-to-grafana_web" style="stroke:#181818;stroke-width:1;"/><polygon fill="#181818" points="119.25,565.8669,123.708,557.0847,119.5074,560.8735,115.7186,556.6729,119.25,565.8669" style="stroke:#181818;stroke-width:1;"/></g><!--reverse link mqtt_io to Port 1883--><g class="link" data-entity-1="mqtt_io" data-entity-2="Port 1883" data-source-line="40" data-uid="lnk23" id="link_mqtt_io_Port 1883"><path d="M413.6914,682.2264 C417.7414,673.6064 424.74,660.9869 438,650.6869 C499.42,602.9769 557.62,653.5469 602,589.6869 C617.22,567.7869 618.31,550.7869 602,529.6869 C574.99,494.7369 424.26,477.4969 392.77,474.2569" fill="none" id="mqtt_io-backto-Port 1883" style="stroke:#181818;stroke-width:1;"/><polygon fill="#181818" points="411.14,687.6569,418.5875,681.2121,413.2662,683.1315,411.3468,677.8102,411.14,687.6569" style="stroke:#181818;stroke-width:1;"/></g><!--link grafana to influx_io--><g class="link" data-entity-1="grafana" data-entity-2="influx_io" data-source-line="42" data-uid="lnk24" id="link_grafana_influx_io"><path d="M123.1073,735.156 C123.1458,735.2317 123.1844,735.3075 123.223,735.3832 C123.3773,735.6863 123.5322,735.9899 123.6877,736.294 C123.9987,736.9023 124.312,737.5125 124.6275,738.1244 C129.675,747.9144 135.28,758.1269 141,767.3469 C151.08,783.5969 161.416,796.6951 168.226,804.9651" fill="none" id="grafana-to-influx_io" style="stroke:#181818;stroke-width:1;"/><polygon fill="#181818" points="172.04,809.5969,169.4068,800.1066,168.8616,805.7371,163.2311,805.192,172.04,809.5969" style="stroke:#181818;stroke-width:1;"/></g><!--link node_red to influx_io--><g class="link" data-entity-1="node_red" data-entity-2="influx_io" data-source-line="43" data-uid="lnk25" id="link_node_red_influx_io"><path d="M229.65,725.0669 C212.15,754.1869 190.3497,790.4635 181.9697,804.4135" fill="none" id="node_red-to-influx_io" style="stroke:#181818;stroke-width:1;"/><polygon fill="#181818" points="178.88,809.5569,186.9434,803.9017,181.4547,805.2708,180.0856,799.7821,178.88,809.5569" style="stroke:#181818;stroke-width:1;"/></g><!--reverse link node_red to mqtt_io--><g class="link" data-entity-1="node_red" data-entity-2="mqtt_io" data-source-line="44" data-uid="lnk27" id="link_node_red_mqtt_io"><path d="M309.72,693.5169 C347.81,693.5169 388.33,693.5169 403.19,693.5169" fill="none" id="node_red-backto-mqtt_io" style="stroke:#181818;stroke-width:1;"/><polygon fill="#181818" points="303.72,693.5169,312.72,697.5169,308.72,693.5169,312.72,689.5169,303.72,693.5169" style="stroke:#181818;stroke-width:1;"/></g><!--reverse link mqtt_io to hw_mock--><g class="link" data-entity-1="mqtt_io" data-entity-2="hw_mock" data-source-line="45" data-uid="lnk29" id="link_mqtt_io_hw_mock"><path d="M420.3053,701.6126 C431.3153,707.0726 453.58,706.8069 479.23,706.1569" fill="none" id="mqtt_io-backto-hw_mock" style="stroke:#181818;stroke-width:1;"/><polygon fill="#181818" points="414.93,698.9469,421.2159,706.529,419.4094,701.1683,424.7701,699.3619,414.93,698.9469" style="stroke:#181818;stroke-width:1;"/></g><!--link User to Port 3000--><g class="link" data-entity-1="User" data-entity-2="Port 3000" data-source-line="57" data-uid="lnk33" id="link_User_Port 3000"><path d="M124,119.3069 C124,208.8569 124,424.9369 124,460.7669" fill="none" id="User-to-Port 3000" style="stroke:#181818;stroke-width:1;"/><polygon fill="#181818" points="124,466.7669,128,457.7669,124,461.7669,120,457.7669,124,466.7669" style="stroke:#181818;stroke-width:1;"/><text fill="#000000" font-family="sans-serif" font-size="13" lengthAdjust="spacing" textLength="58.1953" x="125" y="295.4538">Web Site</text></g><!--link ESP8266MOD chip to Port 1883--><g class="link" data-entity-1="ESP8266MOD chip" data-entity-2="Port 1883" data-source-line="58" data-uid="lnk34" id="link_ESP8266MOD chip_Port 1883"><path d="M387,376.0369 C387,404.4269 387,445.3869 387,460.6969" fill="none" id="ESP8266MOD chip-to-Port 1883" style="stroke:#181818;stroke-width:1;"/><polygon fill="#181818" points="387,466.6969,391,457.6969,387,461.6969,383,457.6969,387,466.6969" style="stroke:#181818;stroke-width:1;"/><text fill="#000000" font-family="sans-serif" font-size="13" lengthAdjust="spacing" textLength="37.3306" x="388" y="420.7538">MQTT</text></g><!--link device_1 to STM32F103RBTx chip--><g class="link" data-entity-1="device_1" data-entity-2="STM32F103RBTx chip" data-source-line="60" data-uid="lnk35" id="link_device_1_STM32F103RBTx chip"><path d="M261.8,104.4769 C289.69,132.0469 332.3529,174.2189 360.1529,201.6989" fill="none" id="device_1-to-STM32F103RBTx chip" style="stroke:#181818;stroke-width:1;"/><polygon fill="#181818" points="364.42,205.9169,360.8313,196.7451,360.8641,202.4019,355.2073,202.4346,364.42,205.9169" style="stroke:#181818;stroke-width:1;"/></g><!--link device_2 to STM32F103RBTx chip--><g class="link" data-entity-1="device_2" data-entity-2="STM32F103RBTx chip" data-source-line="61" data-uid="lnk36" id="link_device_2_STM32F103RBTx chip"><path d="M387,104.4769 C387,132.0469 387,172.4369 387,199.9169" fill="none" id="device_2-to-STM32F103RBTx chip" style="stroke:#181818;stroke-width:1;"/><polygon fill="#181818" points="387,205.9169,391,196.9169,387,200.9169,383,196.9169,387,205.9169" style="stroke:#181818;stroke-width:1;"/></g><!--link device_n to STM32F103RBTx chip--><g class="link" data-entity-1="device_n" data-entity-2="STM32F103RBTx chip" data-source-line="62" data-uid="lnk37" id="link_device_n_STM32F103RBTx chip"><path d="M512.2,104.4769 C484.31,132.0469 441.6471,174.2189 413.8471,201.6989" fill="none" id="device_n-to-STM32F103RBTx chip" style="stroke:#181818;stroke-width:1;"/><polygon fill="#181818" points="409.58,205.9169,418.7927,202.4346,413.1359,202.4019,413.1687,196.7451,409.58,205.9169" style="stroke:#181818;stroke-width:1;"/></g><!--SRC=[ZLHDRvj04BtpAqRuqFP0vG_9igB81vSahHItZksgwibQs05MWLswB2PHbF_UtJKGZEsqvc2nysRUcyViAAPIXAz4qef819ye0lSYZb62ZtagdZFa2dn6OaaoHuaSb810A2Koe4nYg9ZWZaD29IJyB50w3XSKmVLnpqA4mSW5KW2rRxiH3EvPdAWxYSXxm74NE7u7oBj0VWIiaKqxffj3CsuDMwGbmei3-XUAB1VSTETkjil9-7OqdAmNsoS84vQxVSZDPZKRJwVB7tuTju1pcU1HKN5lVYRdjHKe2WLBeayvmiSrAV80fNo65OFQnWy5hBvyQcJ_nZGLLIqy5r8n3kvA_yDaE1owfyUZsMnIQ-mqSIT9H3XnuVgQYl0HvNnkh8mFnp2u7Pddm7AUgGFVLHXOvEk1Xsgp0rBexhxnA2sV_4MVXzdp7Gt-mJGRpgPk9u49Y-cITPhwhXtrrZT-dyqulPD8NoxaBH-sMsyXnQEPZavghGqkYBFEclhP7wMqj0lLayhBTCM-gAJQcUCZJLrxczdfUzpbzbACbCOq0YoW-ORWwSYRRpRME74Siw6wHbkpWTfWBVQKqCwnGf1cDa54BTAcwV6bPalaKkoPdlQ2PMLAL5tKZ0b4UieL5jhL6F9IvgB0maQh13b892aapKfYXqZ9oPwmb0HwNUbiV0hJajOr8wctaQbNV7QGKp3Y7CTS8zsoQRfhyHNymW0sJ4DERkZRtUtuVGLcL1odtM4jwDpUQ1VO_w3ukwY_]--></g></svg>